<?xml version="1.0" encoding="utf-8"?>
<!-- Generator: Adobe Illustrator 17.0.0, SVG Export Plug-In . SVG Version: 6.00 Build 0)  -->
<!DOCTYPE svg PUBLIC "-//W3C//DTD SVG 1.1//EN" "http://www.w3.org/Graphics/SVG/1.1/DTD/svg11.dtd">
<svg version="1.1" id="Layer_1" xmlns="http://www.w3.org/2000/svg" xmlns:xlink="http://www.w3.org/1999/xlink" x="0px" y="0px"
	 width="190.061px" height="28.762px" viewBox="0 0 190.061 28.762" enable-background="new 0 0 190.061 28.762"
	 xml:space="preserve">
<path fill="#E94E1B" d="M190.181,26.5c0,0.475-2.659,0.858-5.925,0.858H5.925C2.659,27.359,0,26.975,0,26.5V0.659
	C0,0.185,2.659-0.2,5.925-0.2h178.324c3.273,0,5.932,0.385,5.932,0.859V26.5L190.181,26.5z"/>
<g enable-background="new    ">
	<path fill="#FFFFFF" d="M9.725,7.253c1.026,0,1.844,0.316,2.454,0.949c0.565,0.604,0.848,1.375,0.848,2.312v1.985
		c0,0.901-0.322,1.672-0.965,2.312S10.64,15.77,9.725,15.77H8.51v5.148H6.403V7.253H9.725z M10.986,10.546
		c0-0.356-0.11-0.643-0.329-0.861s-0.511-0.327-0.875-0.327H8.51v4.374h1.271c0.334,0,0.619-0.116,0.853-0.349
		c0.234-0.233,0.351-0.513,0.351-0.84v-1.997H10.986z"/>
	<path fill="#FFFFFF" d="M14.71,20.918V7.242h3.156c0.833,0,1.583,0.214,2.252,0.643c0.572,0.364,0.981,0.927,1.227,1.691
		c0.134,0.407,0.201,0.891,0.201,1.45c0,0.916-0.25,1.651-0.748,2.203c-0.208,0.233-0.454,0.411-0.736,0.535
		c0.468,0.174,0.866,0.52,1.193,1.036c0.215,0.349,0.375,0.8,0.479,1.353c0.052,0.283,0.078,0.6,0.078,0.948
		c0,0.866-0.167,1.6-0.502,2.203c-0.26,0.473-0.628,0.851-1.104,1.134c-0.535,0.32-1.067,0.48-1.595,0.48
		C18.611,20.918,14.71,20.918,14.71,20.918z M16.985,12.826h0.881c0.654,0,1.093-0.312,1.316-0.938
		c0.082-0.233,0.123-0.52,0.123-0.862c0-0.567-0.141-0.996-0.424-1.287c-0.26-0.269-0.599-0.404-1.015-0.404h-0.881V12.826z
		 M16.985,18.879h0.881c0.713,0,1.208-0.36,1.483-1.08c0.097-0.247,0.145-0.531,0.145-0.851c0-0.764-0.149-1.319-0.446-1.669
		c-0.268-0.32-0.662-0.479-1.182-0.479h-0.881C16.985,14.8,16.985,18.879,16.985,18.879z"/>
</g>
</svg>
